<svg baseprofile="tiny" fill="#7c7c7c" height="1195" stroke="#ffffff" stroke-linecap="round" stroke-linejoin="round" stroke-width="2" version="1.2" viewbox="0 0 1000 1195" width="1000" xmlns="http://www.w3.org/2000/svg">
 <path d="M458.5 214.5l-1.4-1.7-3-3.5-1.8-1.4-1.5-0.4-3-3-3.8 0.8-2-3.1-1-0.6 0.6-0.9-0.2-0.5-1.1-0.4-1.2-0.2-2.6-0.2-0.4-0.3-0.3-0.6-0.6-1.1-0.2-0.9 0.8-2.6 0.1-1 0.6-0.5 0.7-0.4 0.4-0.7 0-1.5-0.2-1-0.4-0.6-1.4-1.1-0.4-0.4-0.1-0.8 0.2-0.9 0.4-0.7 0.4 0.1 0.4-0.5 1.5-1.4-0.5-1 0-0.9 0.5-1.1-0.2-1.7-0.3-0.5 0.9-1.1 0.7-0.3 0.8 0 0.8-0.2 0.7-0.3 4.3-2.8 2.5-0.7 1.4-0.8 0.9-1-0.1-1.1 0.3-0.7 0.3-1.6 0.3-0.6 0.7-0.4 0.9-0.4 1.2-0.1 1.3-0.5 0.9-1 1.6-1.3 0.1-1.2 1.9 0 2.3-0.2 1.1-0.9-0.1-1.7 0.6 0.9 2.8 2.6 1.5 1.8 0.5 1 0.5 2.8 0.6 0.9 0.8 0.7 0.6 0.8 0.3 1.3-0.3 1.2-0.6 1.3-0.3 1.6 0.1 0.8 1.1 3.1 0.2 0.6 0 1.4-0.5 5.8 0.2 4.4-0.2 1.5-1.3 2.3-3.9 2.7-1.2 2.5-0.4 3.1-0.4 1.5-0.8 1.2-1.1 1.3-3.5 7z" id="COL1412" name="Atlántico">
 </path>
</svg>
